<svg xmlns="http://www.w3.org/2000/svg" viewBox="50 12 135 135">
  <style>.cls-1{fill:#e02229;}</style>
  <path class="cls-1" d="M181.62,15.86c0-2.6-.74-3.19-3.24-3.17-17.95.11-35.9,0-53.84.08-21.46.09-42.92.43-64.38.3-3.7,0-4.33.83-4.3,4.25.16,20.67.08,41.35.08,62h0q0,32,0,64.06c0,1.68,0,2.55,2.22,2.54q60-.19,120-.14c2.38,0,3.58-.18,3.57-3.18Q181.47,79.25,181.62,15.86ZM172,79.21h0c0,18-.05,35.9.06,53.84,0,2.55-.65,3.21-3.21,3.2q-50.1-.12-100.19,0c-2.92,0-3.79-.64-3.78-3.72q.19-53.16,0-106.32c0-2.52.44-3.51,3.29-3.51q49.76-.09,99.5-.5c3.28,0,4.41.54,4.36,4.16C171.84,44,172,61.61,172,79.21Z"/>
  <path class="cls-1" d="M118.48,33.32c11.7,0,23.41,0,35.11,0,1.1,0,1.36.27,1.35,1.35-.06,5.81-.05,11.61,0,17.41a7.11,7.11,0,0,1-2.62,5.72c-8.22,7.08-16.4,14.21-24.62,21.29-.76.65-.75.94,0,1.58,8.12,7,16.17,14,24.32,20.89a7.67,7.67,0,0,1,2.94,6.42c-.1,5.76-.05,11.53,0,17.29,0,.92-.21,1.17-1.15,1.17q-35.24,0-70.47,0c-1,0-1.13-.27-1.12-1.16q.06-9,0-18A6.51,6.51,0,0,1,84.62,102c8.17-7.08,16.3-14.2,24.47-21.28.69-.6.86-.9,0-1.61-8.1-7-16.14-14-24.26-20.94A7.61,7.61,0,0,1,82,51.78c.09-5.76.06-11.52,0-17.28,0-1,.32-1.2,1.24-1.2Q100.87,33.35,118.48,33.32Z"/>
</svg>
