<svg id="Camada_1" data-name="Camada 1" xmlns="http://www.w3.org/2000/svg" viewBox="0 0 1135.05 158.63"><defs><style>path{fill:#000000;}.cls-1{fill:#e02229;}</style></defs><path d="M241.33,117.26V34.4h73.86a25.24,25.24,0,0,1,13.38,3.43c7.34,4.74,11,12.79,11,21.31a28.19,28.19,0,0,1-2.72,12.07c-3.79,7.58-11.25,12.67-21.67,12.67H302.77l35,33H310l-30.78-33,.12-14,18.7-.12c5.21,0,10.06-3.9,10.54-8.76.59-7.22-3.91-12.43-10.54-12.43l-25.45-.11v68.77Z"/><path d="M372.84,99.62l-8,17.64h-19.3l37.29-82.74H428l35.75,82.74H424.09l-7.57-17.64Zm37.4-14.91L395.92,47.77,378.76,84.71Z"/><path d="M506.83,90.27v27H475.58V34.4h31.25V69.56L547.08,34.4h24L528.85,71.33l42.25,45.93H532.52Z"/><path d="M645.67,48.37v69H614.54v-69l-31.6-.12V34.52l98.36-.12V48.25Z"/><path d="M696.81,99.62l-8,17.64h-19.3l37.29-82.74H752l35.74,82.74H748.06l-7.58-17.64Zm37.4-14.91L719.89,47.77,702.72,84.71Z"/><path class="cls-1" d="M181.62,15.86c0-2.6-.74-3.19-3.24-3.17-17.95.11-35.9,0-53.84.08-21.46.09-42.92.43-64.38.3-3.7,0-4.33.83-4.3,4.25.16,20.67.08,41.35.08,62h0q0,32,0,64.06c0,1.68,0,2.55,2.22,2.54q60-.19,120-.14c2.38,0,3.58-.18,3.57-3.18Q181.47,79.25,181.62,15.86ZM172,79.21h0c0,18-.05,35.9.06,53.84,0,2.55-.65,3.21-3.21,3.2q-50.1-.12-100.19,0c-2.92,0-3.79-.64-3.78-3.72q.19-53.16,0-106.32c0-2.52.44-3.51,3.29-3.51q49.76-.09,99.5-.5c3.28,0,4.41.54,4.36,4.16C171.84,44,172,61.61,172,79.21Z"/><g id="rlbC8G.tif"><path class="cls-1" d="M118.48,33.32c11.7,0,23.41,0,35.11,0,1.1,0,1.36.27,1.35,1.35-.06,5.81-.05,11.61,0,17.41a7.11,7.11,0,0,1-2.62,5.72c-8.22,7.08-16.4,14.21-24.62,21.29-.76.65-.75.94,0,1.58,8.12,7,16.17,14,24.32,20.89a7.67,7.67,0,0,1,2.94,6.42c-.1,5.76-.05,11.53,0,17.29,0,.92-.21,1.17-1.15,1.17q-35.24,0-70.47,0c-1,0-1.13-.27-1.12-1.16q.06-9,0-18A6.51,6.51,0,0,1,84.62,102c8.17-7.08,16.3-14.2,24.47-21.28.69-.6.86-.9,0-1.61-8.1-7-16.14-14-24.26-20.94A7.61,7.61,0,0,1,82,51.78c.09-5.76.06-11.52,0-17.28,0-1,.32-1.2,1.24-1.2Q100.87,33.35,118.48,33.32Z"/></g><path d="M830.55,45.76V60.68h10.24v2.58H827.72V45.76Z"/><path d="M850.78,45.62h2.78l7.89,17.64H858.4l-2-4.54h-8.28l-2,4.54h-3Zm4.68,10.54-3.27-7.3-3.1,7.3Z"/><path d="M865,45.76h11a4.49,4.49,0,0,1,3.51,1.41,5.07,5.07,0,0,1,1.28,3.54,4.24,4.24,0,0,1-1.52,3.6,3.92,3.92,0,0,1,1.62,1.7,4.88,4.88,0,0,1,.58,2.27,5.11,5.11,0,0,1-1.28,3.57,4.56,4.56,0,0,1-3.56,1.41H865Zm11,7.43c1.31,0,2-.79,2-2.37a3.06,3.06,0,0,0-.5-1.76,1.67,1.67,0,0,0-1.46-.72h-8.17v4.85Zm.63,7.49a1.76,1.76,0,0,0,1.52-.66,2.73,2.73,0,0,0,.49-1.71,3.06,3.06,0,0,0-.5-1.8,1.74,1.74,0,0,0-1.51-.71h-8.8v4.88Z"/><path d="M898,46.71a8.12,8.12,0,0,1,3,3.35,10.08,10.08,0,0,1,1,4.46,9.44,9.44,0,0,1-2.34,6.42,7.92,7.92,0,0,1-6.26,2.68,7.8,7.8,0,0,1-6.24-2.7,9.52,9.52,0,0,1-2.31-6.4,10.27,10.27,0,0,1,1-4.45,8.25,8.25,0,0,1,7.57-4.67A8.29,8.29,0,0,1,898,46.71ZM889.36,50a7,7,0,0,0-1.5,4.46,6.91,6.91,0,0,0,1.5,4.42,4.87,4.87,0,0,0,4,1.89,5,5,0,0,0,4.08-1.88A6.76,6.76,0,0,0,899,54.52,7,7,0,0,0,897.49,50a5,5,0,0,0-4.1-1.89A4.87,4.87,0,0,0,889.36,50Z"/><path d="M906.21,45.76h12a4.46,4.46,0,0,1,3.53,1.44A5.26,5.26,0,0,1,923,50.79,5.47,5.47,0,0,1,922,54.21a4.14,4.14,0,0,1-3.16,1.57h-.35l4.33,7.48h-3.16l-4.3-7.46h-6.26v7.46h-2.84Zm12,7.43c1.31,0,2-.79,2-2.37a3.06,3.06,0,0,0-.5-1.76,1.67,1.67,0,0,0-1.46-.72h-9.17v4.85Z"/><path d="M933.47,45.62h2.77l7.9,17.64h-3l-2-4.54H930.8l-2,4.54h-3Zm4.68,10.54-3.27-7.3-3.1,7.3Z"/><path d="M944.3,48.34V45.76h16.48v2.58H954V63.26h-2.83V48.34Z"/><path d="M975.9,46.71a8.12,8.12,0,0,1,3,3.35,10.08,10.08,0,0,1,1,4.46,9.44,9.44,0,0,1-2.34,6.42,7.92,7.92,0,0,1-6.26,2.68,7.8,7.8,0,0,1-6.24-2.7,9.52,9.52,0,0,1-2.31-6.4,10.27,10.27,0,0,1,1-4.45,8.25,8.25,0,0,1,7.57-4.67A8.29,8.29,0,0,1,975.9,46.71ZM967.23,50a7,7,0,0,0-1.5,4.46,6.91,6.91,0,0,0,1.5,4.42,4.87,4.87,0,0,0,4,1.89,5,5,0,0,0,4.08-1.88,6.76,6.76,0,0,0,1.53-4.41A7,7,0,0,0,975.36,50a5,5,0,0,0-4.1-1.89A4.87,4.87,0,0,0,967.23,50Z"/><path d="M984.08,45.76h12a4.46,4.46,0,0,1,3.53,1.44,5.26,5.26,0,0,1,1.26,3.59,5.47,5.47,0,0,1-1.06,3.42,4.14,4.14,0,0,1-3.16,1.57h-.35l4.33,7.48h-3.16l-4.3-7.46h-6.26v7.46h-2.84Zm12,7.43c1.31,0,2-.79,2-2.37a3.06,3.06,0,0,0-.5-1.76,1.67,1.67,0,0,0-1.46-.72h-9.17v4.85Z"/><path d="M1008.07,45.76v17.5h-2.83V45.76Z"/><path d="M1025.45,46.71a8.22,8.22,0,0,1,3,3.35,10.22,10.22,0,0,1,1,4.46,9.45,9.45,0,0,1-2.35,6.42,7.92,7.92,0,0,1-6.26,2.68,7.78,7.78,0,0,1-6.23-2.7,9.48,9.48,0,0,1-2.32-6.4,10.27,10.27,0,0,1,1-4.45,8.6,8.6,0,0,1,12.21-3.36ZM1016.78,50a7,7,0,0,0-1.49,4.46,6.91,6.91,0,0,0,1.49,4.42,4.87,4.87,0,0,0,4,1.89,5,5,0,0,0,4.09-1.88,6.81,6.81,0,0,0,1.52-4.41,7,7,0,0,0-1.51-4.48,5,5,0,0,0-4.1-1.89A4.87,4.87,0,0,0,1016.78,50Z"/><path d="M1050.3,45.76a8,8,0,0,1,6.19,2.54,9.31,9.31,0,0,1,0,12.39,8,8,0,0,1-6.19,2.57h-8.25V45.76Zm4,13.09a7,7,0,0,0,0-8.68,5,5,0,0,0-4-1.83h-5.42V60.68h5.42A5,5,0,0,0,1054.34,58.85Z"/><path d="M1079.19,45.76v2.58H1065.9v4.85h9.88V55.8h-9.88v4.88h13.29v2.58h-16.12V45.76Z"/><path d="M827.72,78.43h12a4.45,4.45,0,0,1,3.53,1.44,5.73,5.73,0,0,1,0,7.18,4.45,4.45,0,0,1-3.54,1.43h-9.17v7.46h-2.83Zm12,7.43c1.31,0,2-.79,2-2.37a2.94,2.94,0,0,0-.5-1.75,1.66,1.66,0,0,0-1.46-.72h-9.17v4.84Z"/><path d="M864.66,78.43V81H851.38v4.84h9.88v2.62h-9.88v4.87h13.28v2.59H848.55V78.43Z"/><path d="M869.21,78.43h12a4.47,4.47,0,0,1,3.53,1.44,5.27,5.27,0,0,1,1.26,3.6A5.46,5.46,0,0,1,885,86.88a4.14,4.14,0,0,1-3.16,1.57h-.35l4.33,7.49h-3.16l-4.3-7.46H872v7.46h-2.83Zm12,7.43c1.31,0,2-.79,2-2.37a2.94,2.94,0,0,0-.51-1.75,1.66,1.66,0,0,0-1.45-.72H872v4.84Z"/><path d="M906.16,78.43V81h-13v4.84h9.56v2.62H893.2v7.46h-2.83V78.43Z"/><path d="M922.18,79.38a8.12,8.12,0,0,1,3,3.35,10.09,10.09,0,0,1,1,4.47,9.44,9.44,0,0,1-2.34,6.41,7.89,7.89,0,0,1-6.26,2.68,7.78,7.78,0,0,1-6.23-2.7A9.45,9.45,0,0,1,909,87.2a10.32,10.32,0,0,1,1-4.46,8.25,8.25,0,0,1,7.57-4.67A8.29,8.29,0,0,1,922.18,79.38Zm-8.67,3.34a7.31,7.31,0,0,0,0,8.87,4.88,4.88,0,0,0,4,1.9,5,5,0,0,0,4.08-1.88,6.8,6.8,0,0,0,1.53-4.41,6.93,6.93,0,0,0-1.51-4.48,5,5,0,0,0-4.1-1.9A4.88,4.88,0,0,0,913.51,82.72Z"/><path d="M930.36,78.43h12a4.46,4.46,0,0,1,3.53,1.44,5.27,5.27,0,0,1,1.26,3.6,5.46,5.46,0,0,1-1.06,3.41,4.14,4.14,0,0,1-3.16,1.57h-.35l4.33,7.49h-3.16l-4.3-7.46H933.2v7.46h-2.84Zm12,7.43c1.31,0,2-.79,2-2.37a3,3,0,0,0-.5-1.75,1.67,1.67,0,0,0-1.46-.72H933.2v4.84Z"/><path d="M954.13,78.43l5.67,7.46,5.55-7.46H968V95.94h-2.83V83l-4.47,6h-1.93L954.35,83v13h-2.83V78.43Z"/><path d="M979.13,78.29h2.77l7.9,17.65h-3l-2-4.55h-8.28l-2,4.55h-3Zm4.68,10.54-3.27-7.3-3.1,7.3Z"/><path d="M996,78.43l11,13v-13h2.83V95.94h-2.67l-11-13v13h-2.83V78.43Z"/><path d="M1028,80a9,9,0,0,1,2.93,4.93l.06.3h-3.08l-.06-.19a5.87,5.87,0,0,0-1.94-3,5.14,5.14,0,0,0-3.37-1.19,4.84,4.84,0,0,0-4,1.91,7.33,7.33,0,0,0,0,8.86,4.88,4.88,0,0,0,4,1.9,5.16,5.16,0,0,0,3.38-1.18,5.58,5.58,0,0,0,1.93-3l.06-.19H1031l-.06.3a9.09,9.09,0,0,1-2.93,4.94,8,8,0,0,1-5.46,1.92,7.78,7.78,0,0,1-6.23-2.7A9.5,9.5,0,0,1,1014,87.2a10.17,10.17,0,0,1,1-4.46,8.22,8.22,0,0,1,7.56-4.67A8.08,8.08,0,0,1,1028,80Z"/><path d="M1051.33,78.43V81h-13.28v4.84h9.88v2.62h-9.88v4.87h13.28v2.59h-16.12V78.43Z"/><line x1="969.6" y1="41.26" x2="979.04" y2="37.17"/><rect x="969.17" y="38.15" width="10.29" height="2.13" transform="translate(64.63 390.36) rotate(-23.41)"/></svg>
